<svg width="1440" height="398" viewBox="0 0 1440 398" fill="none" xmlns="http://www.w3.org/2000/svg">
<g clip-path="url(#clip0_671_39)">
<rect width="1440" height="398" fill="white"/>
<path d="M54.4952 313.009L6.72017 283.525L37.0232 246.124V140.2C33.4742 139.381 29.6522 138.835 25.8302 138.835C16.0022 138.835 7.81217 147.298 0.441172 157.399L-2.28883 155.215L52.3112 98.977L100.086 128.461L80.1572 153.031V215.548L46.5782 252.949L80.1572 273.151C91.0772 273.151 100.359 262.777 106.365 254.587L109.095 256.771L54.4952 313.009ZM158.199 101.161L159.837 101.707C156.015 115.63 164.205 134.74 177.309 134.74C205.155 134.74 223.992 98.704 267.399 98.977C298.794 99.25 326.913 126.823 305.346 169.411C289.512 200.533 237.642 258.955 237.642 291.169C237.642 302.089 243.648 314.92 257.025 314.92C309.714 314.92 302.889 205.174 330.189 136.651C341.382 108.532 381.786 101.434 405.264 101.434H445.395L444.849 103.891C429.561 103.891 418.095 103.072 403.626 110.716C363.495 132.283 341.382 247.216 315.993 281.614C306.711 294.445 286.236 318.196 256.752 318.196C238.734 318.196 201.333 303.454 201.333 268.783C201.333 217.186 284.598 200.26 303.981 163.132C308.076 155.215 309.168 146.479 308.076 139.927C305.619 125.731 271.221 119.452 251.838 117.268C207.066 206.266 175.944 315.193 126.258 315.193L136.632 246.124C178.401 248.035 224.265 164.224 246.924 116.995C243.375 116.722 240.645 116.449 239.28 116.449C197.784 116.449 184.68 174.871 163.659 174.871C151.374 174.871 148.371 158.218 148.371 145.66C148.371 126.55 153.285 108.805 158.199 101.161ZM426.319 220.735L425.773 304C376.36 304 442.153 304 392.74 304V112.9H540.433V137.47H426.319V196.165H540.433V220.735H426.319ZM594.958 214.183L594.685 304H561.379V112.9H616.525C650.377 112.9 681.499 123.274 681.499 161.767C681.499 190.432 664.027 207.358 636.454 212.545L681.226 304H647.101L603.148 214.183H594.958ZM594.958 188.248H616.525C634.816 188.248 647.92 184.153 647.92 163.405C647.92 142.93 634.816 138.562 616.525 138.835H594.958V188.248ZM784.54 304L778.261 264.415H733.762L727.483 304H694.45L724.207 112.9H788.908L818.665 304H784.54ZM737.584 238.48H774.439L756.148 120.817L737.584 238.48ZM951.998 304L923.333 147.025L894.941 304H829.694V112.9H861.908L864.092 292.534L896.579 112.627H951.179L983.939 291.988V112.9H1016.15L1018.34 304H951.998ZM1122.59 304L1116.31 264.415H1071.81L1065.53 304H1032.5L1062.26 112.9H1126.96L1156.72 304H1122.59ZM1075.63 238.48H1112.49L1094.2 120.817L1075.63 238.48ZM1238.63 112.9H1271.67L1241.91 304H1178.3L1148.54 112.9H1181.58L1210.24 296.083L1238.63 112.9ZM1321.57 220.735L1321.29 279.43H1436.5V304H1287.99V112.9H1435.68V137.47H1321.57V196.165H1435.68V220.735H1321.57Z" fill="#000"/>
</g>
<defs>
<clipPath id="clip0_671_39">
<rect width="1440" height="398" fill="white"/>
</clipPath>
</defs>
</svg>
