<svg width="307" height="128" viewBox="0 0 307 128" fill="none" xmlns="http://www.w3.org/2000/svg">
<path d="M12.576 59.808V96H4.608V59.808H12.576ZM4.608 39.456V31.488H12.576V39.456H4.608Z" fill="#000"/>
<path d="M62.784 96H56.928L13.056 36.576V31.488H19.008L54.912 80.064V31.488H62.784V96Z" fill="#000"/>
<path d="M56.608 59.808H94.528V67.68H64.576V96H56.608V59.808ZM56.608 31.488H96.736V39.456H56.608V31.488Z" fill="#000"/>
<path d="M143.592 96H134.376L120.936 73.536C119.976 73.6 117 73.632 112.008 73.632H105.864V96H97.896V65.76H110.952C115.752 65.76 119.24 65.696 121.416 65.568C125.192 65.312 128.136 63.936 130.248 61.44C132.424 58.944 133.512 55.968 133.512 52.512C133.512 49.12 132.456 46.208 130.344 43.776C128.232 41.28 125.256 39.872 121.416 39.552C119.688 39.424 116.072 39.36 110.568 39.36H97.896V31.488H118.824C126.184 31.488 131.752 33.504 135.528 37.536C139.368 41.504 141.352 46.496 141.48 52.512C141.416 57.184 140.136 61.312 137.64 64.896C135.144 68.48 132.296 70.816 129.096 71.904L143.592 96Z" fill="#000"/>
<path d="M174.384 32L196.752 96.512L188.4 96.512L171.6 47.936L154.704 96.512L146.448 96.512L168.72 32L174.384 32Z" fill="#000"/>
<path d="M222.648 48.384L207.384 96H201.528L191.832 59.808H199.992L204.792 78.048L219.768 31.488H225.528L240.504 78.048L252.888 31.488L261.048 31.488L243.768 96H237.912L222.648 48.384ZM194.52 39.456H186.36L184.248 31.488H192.408L194.52 39.456Z" fill="#000"/>
<path d="M264.496 88.032H304.624V96H264.496V88.032ZM304.624 39.456H264.496V31.488H304.624V39.456ZM264.496 59.808H302.416V67.68H264.496V59.808Z" fill="#000"/>
<rect x="212" y="70" width="12" height="9" fill="#000"/>
<rect x="160" y="70" width="12" height="9" fill="#000"/>
</svg>
