<svg width="1425" height="238" viewBox="0 0 1425 238" fill="none" xmlns="http://www.w3.org/2000/svg">
<path d="M61.7845 231.702L10.3345 199.95L42.9685 159.672V45.6C39.1465 44.718 35.0305 44.13 30.9145 44.13C20.3305 44.13 11.5105 53.244 3.57254 64.122L0.632539 61.77L59.4325 1.20599L110.883 32.958L89.4205 59.418V126.744L53.2585 167.022L89.4205 188.778C101.181 188.778 111.177 177.606 117.645 168.786L120.585 171.138L61.7845 231.702ZM173.465 3.55799L175.229 4.14598C171.113 19.14 179.933 39.72 194.045 39.72C224.033 39.72 244.319 0.91199 291.066 1.20599C324.875 1.49998 355.158 31.194 331.932 77.058C314.879 110.574 259.019 173.49 259.019 208.182C259.019 219.942 265.487 233.76 279.894 233.76C336.635 233.76 329.286 115.572 358.685 41.778C370.739 11.496 414.251 3.85199 439.536 3.85199H482.753L482.166 6.49799C465.702 6.49799 453.354 5.61598 437.771 13.848C394.554 37.074 370.739 160.848 343.398 197.892C333.402 211.71 311.351 237.288 279.599 237.288C260.196 237.288 219.917 221.412 219.917 184.074C219.917 128.508 309.587 110.28 330.462 70.296C334.872 61.77 336.048 52.362 334.872 45.306C332.226 30.018 295.182 23.256 274.307 20.904C226.091 116.748 192.575 234.054 139.067 234.054L150.239 159.672C195.221 161.73 244.614 71.472 269.016 20.61C265.193 20.316 262.254 20.022 260.783 20.022C216.095 20.022 201.983 82.938 179.345 82.938C166.115 82.938 162.881 65.004 162.881 51.48C162.881 30.9 168.173 11.79 173.465 3.55799ZM462.21 132.33L461.622 222C408.408 222 479.262 222 426.048 222V16.2H585.102V42.66H462.21V105.87H585.102V132.33H462.21ZM643.822 125.274L643.528 222H607.66V16.2H667.048C703.504 16.2 737.02 27.372 737.02 68.826C737.02 99.696 718.204 117.924 688.51 123.51L736.726 222H699.976L652.642 125.274H643.822ZM643.822 97.344H667.048C686.746 97.344 700.858 92.934 700.858 70.59C700.858 48.54 686.746 43.836 667.048 44.13H643.822V97.344ZM847.986 222L841.224 179.37H793.302L786.54 222H750.966L783.012 16.2H852.69L884.736 222H847.986ZM797.418 151.44H837.108L817.41 24.726L797.418 151.44ZM1028.33 222L997.456 52.95L966.88 222H896.614V16.2H931.306L933.658 209.652L968.644 15.906H1027.44L1062.72 209.064V16.2H1097.42L1099.77 222H1028.33ZM1210.97 16.2H1246.54L1214.5 222H1145.99L1113.95 16.2H1149.52L1180.39 213.474L1210.97 16.2ZM1300.28 132.33L1299.99 195.54H1424.06V222H1264.12V16.2H1423.17V42.66H1300.28V105.87H1423.17V132.33H1300.28Z" fill="#000"/>
</svg>
